<svg width="28" height="28" viewBox="0 0 28 28" fill="none" xmlns="http://www.w3.org/2000/svg">
<path d="M16.498 14L27.8173 2.68125C28.061 2.43731 28.061 2.04205 27.8173 1.79812L26.203 0.182879C26.0859 0.0660725 25.9266 0 25.7611 0C25.5954 0 25.4364 0.0660725 25.3193 0.182879L14.0002 11.5019L2.68117 0.182879C2.44667 -0.0516192 2.03165 -0.0513242 1.79774 0.182879L0.183685 1.79812C-0.0602519 2.04205 -0.0602519 2.43731 0.183685 2.68125L11.5027 14L0.183685 25.3188C-0.0602519 25.5627 -0.0602519 25.9579 0.183685 26.2019L1.79804 27.8171C1.91514 27.9339 2.07413 28 2.2399 28C2.40567 28 2.56436 27.9339 2.68146 27.8171L14.0005 16.4981L25.3196 27.8171C25.4367 27.9339 25.5959 28 25.7614 28C25.9269 28 26.0862 27.9339 26.2033 27.8171L27.8176 26.2019C28.0613 25.9579 28.0613 25.5627 27.8176 25.3188L16.498 14Z" fill="#404040"/>
</svg>
