<svg width="32" height="32" viewBox="0 0 32 32" fill="none" xmlns="http://www.w3.org/2000/svg">
<path d="M10.9829 26.0836L5.93436 21.0298L23.7316 3.21086L28.7802 8.26467L10.9829 26.0836ZM4.71304 23.5828L8.42924 27.3046L3.25661 28.7606L4.71304 23.5828ZM31.6081 7.32442L24.6721 0.377076C24.1692 -0.125692 23.2875 -0.125692 22.7846 0.377076L3.10639 20.083C2.94311 20.2462 2.82555 20.4421 2.76677 20.6641L0.0498319 30.3277C-0.0807902 30.7913 0.0498319 31.2941 0.389449 31.6336C0.644163 31.8883 1.15359 32.0711 1.69567 31.9731L11.3486 29.2504C11.5707 29.1916 11.7666 29.0741 11.9299 28.9108L31.6081 9.21144C32.1306 8.68908 32.1306 7.84678 31.6081 7.32442V7.32442Z" fill="#404040"/>
</svg>
